<?xml version="1.0" encoding="UTF-8" standalone="no"?>
<!DOCTYPE svg PUBLIC "-//W3C//DTD SVG 1.1//EN" "http://www.w3.org/Graphics/SVG/1.1/DTD/svg11.dtd">
<!-- Created with Vectornator (http://vectornator.io/) -->
<svg height="100%" stroke-miterlimit="10" style="fill-rule:nonzero;clip-rule:evenodd;stroke-linecap:round;stroke-linejoin:round;" version="1.1" viewBox="0 0 150 150" width="100%" xml:space="preserve" xmlns="http://www.w3.org/2000/svg" xmlns:xlink="http://www.w3.org/1999/xlink">
<defs/>
<path d="M0 0L150 0L150 150L0 150L0 0Z" fill="#ffffff" fill-rule="nonzero" opacity="1" stroke="none"/>
<g id="Untitled">
<g opacity="1">
<path d="M24.4982 25.4604L124.042 25.4604L124.042 130.671L24.4982 130.671L24.4982 25.4604Z" fill="#ffffff" fill-rule="nonzero" opacity="1" stroke="none"/>
<g opacity="1">
<clipPath id="ClipPath">
<path d="M104.787 54.8769C104.727 54.7567 104.727 54.6365 104.667 54.5162C104.607 54.2758 104.487 54.0352 104.427 53.7948C104.186 53.1336 103.946 52.5323 103.705 51.9312C101.12 46.3402 96.1905 42.0118 90.4193 39.3064C88.1949 41.8314 86.211 44.8373 84.708 48.264L85.7902 49.286C89.6377 52.9531 92.4031 59.4458 93.4252 65.4576C95.0483 75.1366 93.5453 87.4005 89.818 90.7671C91.6817 89.8654 93.365 88.7231 94.928 87.4606C94.9881 87.3405 95.0483 87.2803 95.0483 87.1601C95.5293 86.3184 96.0101 85.4167 96.4911 84.575C97.1524 83.3126 97.8138 82.1102 98.475 81.0281C99.1363 79.8859 99.7976 78.8037 100.459 77.7216C101.721 75.6176 102.864 73.6336 103.765 71.5295C105.088 68.3432 105.809 64.7963 105.629 59.6863C105.509 58.003 105.208 56.44 104.787 54.8769Z"/>
</clipPath>
<g clip-path="url(#ClipPath)">
<clipPath id="ClipPath_2">
<path d="M84.6368 90.8789L105.885 90.8789L105.885 39.2395L84.6368 39.2395L84.6368 90.8789Z"/>
</clipPath>
<g clip-path="url(#ClipPath_2)">
<clipPath id="ClipPath_3">
<path d="M84.0642 38.6625L106.3 38.6625L106.3 91.411L84.0642 91.411L84.0642 38.6625Z"/>
</clipPath>
<g clip-path="url(#ClipPath_3)">
<clipPath id="ClipPath_4">
<path d="M84.6368 90.8789L105.885 90.8789L105.885 39.2395L84.6368 39.2395L84.6368 90.8789Z"/>
</clipPath>
<g clip-path="url(#ClipPath_4)">
<path d="M83.4203 38.0187L106.944 38.0187L106.944 92.0548L83.4203 92.0548L83.4203 38.0187Z" fill="#44bbf8" fill-rule="nonzero" opacity="1" stroke="none"/>
</g>
</g>
</g>
</g>
</g>
<g opacity="1">
<clipPath id="ClipPath_5">
<path d="M84.3473 88.7231C84.708 88.7833 85.0687 88.7231 85.4295 88.6029C89.9984 86.9798 92.1627 73.4532 90.4193 62.8124C89.5776 57.5823 87.5337 52.0514 84.5879 48.3843C81.8826 54.4561 80.4397 61.7303 80.7403 69.6659C81.0409 77.9019 82.4235 84.9357 84.3473 88.7231Z"/>
</clipPath>
<g clip-path="url(#ClipPath_5)">
<clipPath id="ClipPath_6">
<path d="M80.3872 88.8184L91.7195 88.8184L91.7195 48.3826L80.3872 48.3826L80.3872 88.8184Z"/>
</clipPath>
<g clip-path="url(#ClipPath_6)">
<clipPath id="ClipPath_7">
<path d="M80.0573 47.7404L91.6644 47.7404L91.6644 89.3906L80.0573 89.3906L80.0573 47.7404Z"/>
</clipPath>
<g clip-path="url(#ClipPath_7)">
<clipPath id="ClipPath_8">
<path d="M80.3872 88.8184L91.7195 88.8184L91.7195 48.3826L80.3872 48.3826L80.3872 88.8184Z"/>
</clipPath>
<g clip-path="url(#ClipPath_8)">
<path d="M79.4134 47.0965L92.3083 47.0965L92.3083 90.0345L79.4134 90.0345L79.4134 47.0965Z" fill="#44bbf8" fill-rule="nonzero" opacity="1" stroke="none"/>
</g>
</g>
</g>
</g>
</g>
<g opacity="1">
<clipPath id="ClipPath_9">
<path d="M71.1215 68.3432C70.3399 65.5177 68.6567 61.9708 66.5526 59.4458C66.4925 59.4458 66.4925 59.3858 66.4925 59.3858C64.5687 65.2172 63.8473 72.0104 64.0277 77.6014L64.0277 78.1425C64.1478 81.5091 65.3502 88.5427 67.4543 91.7891C67.6947 91.7891 67.9353 91.7891 68.2359 91.729C72.8649 90.0457 73.0453 75.0163 71.1215 68.3432Z"/>
</clipPath>
<g clip-path="url(#ClipPath_9)">
<clipPath id="ClipPath_10">
<path d="M63.775 91.9091L72.9182 91.9091L72.9182 59.3286L63.775 59.3286L63.775 91.9091Z"/>
</clipPath>
<g clip-path="url(#ClipPath_10)">
<clipPath id="ClipPath_11">
<path d="M63.357 58.7419L72.9184 58.7419L72.9184 92.4329L63.357 92.4329L63.357 58.7419Z"/>
</clipPath>
<g clip-path="url(#ClipPath_11)">
<clipPath id="ClipPath_12">
<path d="M63.775 91.9091L73.0469 91.9091L73.0469 59.3286L63.775 59.3286L63.775 91.9091Z"/>
</clipPath>
<g clip-path="url(#ClipPath_12)">
<path d="M62.7131 58.098L73.5623 58.098L73.5623 93.0768L62.7131 93.0768L62.7131 58.098Z" fill="#44bbf8" fill-rule="nonzero" opacity="1" stroke="none"/>
</g>
</g>
</g>
</g>
</g>
<g opacity="1">
<clipPath id="ClipPath_13">
<path d="M85.3093 90.3462L83.2652 88.4826L82.4837 87.7613C79.4778 85.1161 76.9529 77.0604 76.5922 67.0207C76.2916 59.6262 77.7344 52.5924 80.3195 46.4003C78.9368 46.2201 77.494 46.3402 75.991 47.0015C71.422 48.9854 68.3561 53.7347 66.4925 59.3256L67.0335 59.8666L67.334 60.1673C70.1596 62.9327 72.384 67.8624 73.3458 71.289C75.2696 77.9621 74.9691 91.6689 70.2798 93.292L70.1596 93.292C75.2696 94.3741 80.6802 94.0735 85.9104 92.3302C86.5116 92.0897 87.1128 91.9093 87.7139 91.6088C87.0527 91.6088 86.4514 91.3082 85.8503 90.8272L85.3093 90.3462Z"/>
</clipPath>
<g clip-path="url(#ClipPath_13)">
<clipPath id="ClipPath_14">
<path d="M66.4793 94.4846L87.7275 94.4846L87.7275 46.1934L66.4793 46.1934L66.4793 94.4846Z"/>
</clipPath>
<g clip-path="url(#ClipPath_14)">
<clipPath id="ClipPath_15">
<path d="M65.8486 45.6809L88.3578 45.6809L88.3578 94.5675L65.8486 94.5675L65.8486 45.6809Z"/>
</clipPath>
<g clip-path="url(#ClipPath_15)">
<clipPath id="ClipPath_16">
<path d="M66.4793 94.4846L87.7275 94.4846L87.7275 46.1934L66.4793 46.1934L66.4793 94.4846Z"/>
</clipPath>
<g clip-path="url(#ClipPath_16)">
<path d="M65.2047 45.037L89.0017 45.037L89.0017 95.2114L65.2047 95.2114L65.2047 45.037Z" fill="#44bbf8" fill-rule="nonzero" opacity="1" stroke="none"/>
</g>
</g>
</g>
</g>
</g>
<g opacity="1">
<clipPath id="ClipPath_17">
<path d="M66.3722 91.3082C63.4866 89.0838 61.6229 79.5853 61.4425 75.6776C61.2622 70.3272 61.9235 63.8345 63.727 58.0631C62.7652 57.943 61.8032 58.0631 60.8414 58.6042C55.6713 61.4899 51.7637 69.8462 51.1625 80.3067C55.2504 86.6191 61.5026 91.0076 68.5364 92.9313L66.9735 91.729L66.3722 91.3082Z"/>
</clipPath>
<g clip-path="url(#ClipPath_17)">
<clipPath id="ClipPath_18">
<path d="M51.1549 92.9393L68.5398 92.9393L68.5398 57.9121L51.1549 57.9121L51.1549 92.9393Z"/>
</clipPath>
<g clip-path="url(#ClipPath_18)">
<clipPath id="ClipPath_19">
<path d="M50.5186 57.3766L69.1803 57.3766L69.1803 93.5752L50.5186 93.5752L50.5186 57.3766Z"/>
</clipPath>
<g clip-path="url(#ClipPath_19)">
<clipPath id="ClipPath_20">
<path d="M51.1549 92.9393L68.5398 92.9393L68.5398 57.9121L51.1549 57.9121L51.1549 92.9393Z"/>
</clipPath>
<g clip-path="url(#ClipPath_20)">
<path d="M49.8748 56.7327L69.8242 56.7327L69.8242 94.2191L49.8748 94.2191L49.8748 56.7327Z" fill="#44bbf8" fill-rule="nonzero" opacity="1" stroke="none"/>
</g>
</g>
</g>
</g>
</g>
<g opacity="1">
<clipPath id="ClipPath_21">
<path d="M88.5556 91.5486C88.3151 91.6088 88.0747 91.6689 87.7741 91.6689C87.1728 91.9093 86.5717 92.1499 85.9706 92.3903C80.6802 94.1938 75.2696 94.4343 70.2198 93.3521C69.6185 93.5326 69.0174 93.4123 68.4763 92.9914C61.4425 91.0676 55.1904 86.6191 51.1024 80.3668C51.7637 69.9063 55.6111 61.55 60.7812 58.6644C61.7432 58.1233 62.705 57.943 63.667 58.1233C61.8032 63.8945 61.2021 70.3873 61.3825 75.7377C61.5628 79.6453 63.4264 89.144 66.3121 91.3683L66.8532 91.7891L68.4163 92.9914C68.0556 92.6909 67.6947 92.27 67.334 91.7891C65.2299 88.5427 64.0877 81.5091 63.9074 78.1425L63.9074 77.6014C63.8473 72.0104 64.5085 65.2172 66.4925 59.3858L66.5526 59.4458C66.7329 59.5661 66.8532 59.7465 67.0335 59.8666L66.4925 59.3256C68.3561 53.7347 71.422 48.9854 75.991 47.0616C77.494 46.4003 78.9368 46.2801 80.3195 46.4605C77.7344 52.5924 76.2916 59.6863 76.5922 67.0808C77.013 77.1204 79.4778 85.1161 82.4837 87.8213L83.2652 88.5427L85.3093 90.4064L85.9104 90.9475C85.67 90.7671 85.4896 90.5267 85.3093 90.2862C85.0086 89.8654 84.6479 89.3844 84.3473 88.7833C82.3635 84.9958 81.0409 78.0222 80.7403 69.786C80.4397 61.8506 81.8826 54.5764 84.5879 48.5044L84.5879 48.4443C84.9486 48.745 85.3693 49.0455 85.73 49.4062L84.6479 48.3843C86.211 45.0177 88.1348 42.0118 90.3591 39.4267C90.7198 39.066 91.0204 38.6452 91.3811 38.2845C94.387 35.2185 97.8738 32.8739 101.661 31.6114C101.301 30.6495 101.06 29.6275 100.94 28.5454C100.88 27.7639 100.82 26.9824 100.94 26.2008C95.6494 27.6437 90.7198 31.1305 86.692 36C86.2711 36.4809 85.8503 37.022 85.4896 37.5631C82.8444 36.8416 80.1392 36.3607 77.4338 36.3006L75.3298 36.3006C70.9412 36.4809 66.793 37.5631 63.2461 39.7874C56.3927 43.9956 54.7094 46.2201 50.922 53.0133C50.4411 54.396 49.9601 55.8388 49.4792 57.2216C47.6756 59.3858 47.4954 59.6262 47.6155 62.4517C47.6756 63.2934 47.7358 64.1952 47.7358 65.0368C47.3149 65.5177 46.8941 65.9987 46.4131 66.4194C45.1507 67.7421 43.8882 69.1248 42.6258 70.4474C42.0245 71.3491 42.1448 72.1908 42.4454 73.0325C43.2871 73.8139 44.1888 74.5353 45.0304 75.3169C45.4513 75.7978 45.9323 76.2187 46.3531 76.6997C46.1727 78.1425 45.812 79.465 45.0906 80.6674C45.2109 81.2685 45.5716 81.8698 45.6917 82.4709C45.5114 83.0119 45.1507 83.4929 44.9703 83.9739C45.0906 85.056 45.271 86.0178 45.3912 87.0398C45.7519 89.5648 45.271 90.6469 44.309 92.9914C43.9483 94.6147 44.0085 96.0575 44.79 97.0193C45.9323 98.1616 47.2548 98.4621 48.4572 98.8228C50.7417 99.2437 54.0482 98.2818 55.9118 100.987C57.0541 102.61 57.6552 104.895 57.9557 107.36C63.7871 103.091 72.0233 100.747 80.9807 101.588C85.4896 102.009 89.6979 103.211 93.4252 104.955C93.1846 103.151 92.9442 101.348 92.8841 99.6044C92.7038 96.7789 92.7638 94.1337 93.1245 91.9695C93.2448 91.4885 93.3049 91.0076 93.4252 90.5868C93.7258 89.5047 94.2667 88.4826 94.8079 87.4606C93.2448 88.7231 91.5014 89.8052 89.6979 90.7671C89.3972 91.1278 88.9765 91.3683 88.5556 91.5486Z"/>
</clipPath>
<g clip-path="url(#ClipPath_21)">
<clipPath id="ClipPath_22">
<path d="M42.0118 107.362L101.764 107.362L101.764 26.1043L42.0118 26.1043L42.0118 107.362Z"/>
</clipPath>
<g clip-path="url(#ClipPath_22)">
<clipPath id="ClipPath_23">
<path d="M41.5532 25.557L102.305 25.557L102.305 108.003L41.5532 108.003L41.5532 25.557Z"/>
</clipPath>
<g clip-path="url(#ClipPath_23)">
<clipPath id="ClipPath_24">
<path d="M42.0118 107.362L101.764 107.362L101.764 26.1043L42.0118 26.1043L42.0118 107.362Z"/>
</clipPath>
<g clip-path="url(#ClipPath_24)">
<path d="M40.9093 24.9131L102.949 24.9131L102.949 108.647L40.9093 108.647L40.9093 24.9131Z" fill="#004f7f" fill-rule="nonzero" opacity="1" stroke="none"/>
</g>
</g>
</g>
</g>
</g>
<g opacity="1">
<path d="M39.1334 115.964C40.2622 115.964 41.1481 116.305 41.7909 116.987C42.4338 117.669 42.7552 118.596 42.7552 119.767L42.7552 125.906L40.6184 125.906L40.6184 120.365C40.6184 119.61 40.4116 119.019 39.9981 118.59C39.5846 118.161 39.0127 117.947 38.2823 117.947C37.4553 117.971 36.7974 118.272 36.3084 118.848C35.8195 119.424 35.575 120.15 35.575 121.026L35.575 125.906L33.4472 125.906L33.4472 120.365C33.4472 119.61 33.2389 119.019 32.8224 118.59C32.4059 118.161 31.8415 117.947 31.1292 117.947C30.2901 117.971 29.6231 118.272 29.1281 118.848C28.6331 119.424 28.3856 120.15 28.3856 121.026L28.3856 125.906L26.2669 125.906L26.2669 116.037L28.3856 116.037L28.3856 117.947C29.0436 116.625 30.2358 115.964 31.9622 115.964C32.8375 115.964 33.5694 116.171 34.1579 116.584C34.7465 116.998 35.1585 117.582 35.3939 118.336C35.9975 116.755 37.2441 115.964 39.1334 115.964Z" fill="#004f7f" fill-rule="nonzero" opacity="1" stroke="none"/>
<path d="M45.6075 125.906L45.6075 116.037L47.7263 116.037L47.7263 125.906L45.6075 125.906ZM46.6578 111.926C47.02 111.926 47.3188 112.047 47.5542 112.288C47.7896 112.529 47.9073 112.84 47.9073 113.221C47.9073 113.589 47.7896 113.894 47.5542 114.135C47.3188 114.377 47.02 114.497 46.6578 114.497C46.3016 114.497 46.0059 114.378 45.7705 114.14C45.535 113.901 45.4173 113.595 45.4173 113.221C45.4173 112.84 45.535 112.529 45.7705 112.288C46.0059 112.047 46.3016 111.926 46.6578 111.926Z" fill="#004f7f" fill-rule="nonzero" opacity="1" stroke="none"/>
<path d="M56.6359 115.964C57.7829 115.964 58.6823 116.302 59.3343 116.978C59.9862 117.654 60.3121 118.584 60.3121 119.767L60.3121 125.906L58.1753 125.906L58.1753 120.365C58.1753 119.622 57.9655 119.037 57.546 118.608C57.1264 118.179 56.5454 117.965 55.803 117.965C55.0122 117.977 54.3664 118.231 53.8653 118.726C53.3642 119.221 53.0776 119.864 53.0051 120.654L53.0051 125.906L50.8681 125.906L50.8681 116.037L53.0051 116.037L53.0051 117.929C53.6751 116.619 54.8855 115.964 56.6359 115.964Z" fill="#004f7f" fill-rule="nonzero" opacity="1" stroke="none"/>
<path d="M72.554 125.906L70.4261 125.906L70.4261 124.222C70.07 124.801 69.5977 125.242 69.0092 125.544C68.4205 125.846 67.737 125.997 66.9583 125.997C66.0165 125.997 65.1911 125.784 64.4818 125.358C63.7725 124.933 63.2201 124.337 62.8248 123.57C62.4294 122.803 62.2318 121.925 62.2318 120.935C62.2318 119.957 62.4294 119.091 62.8248 118.336C63.2201 117.582 63.7725 116.995 64.4818 116.575C65.1911 116.156 66.0044 115.946 66.9221 115.946C67.7128 115.946 68.4009 116.101 68.9865 116.412C69.572 116.723 70.0519 117.168 70.4261 117.748L70.4261 112.143L72.554 112.143L72.554 125.906ZM67.4019 124.222C68.2953 124.222 69.0227 123.922 69.584 123.321C70.1455 122.72 70.4261 121.949 70.4261 121.008C70.4261 120.054 70.1455 119.275 69.584 118.671C69.0227 118.068 68.2953 117.766 67.4019 117.766C66.5145 117.766 65.7887 118.069 65.2243 118.676C64.6599 119.283 64.3717 120.06 64.3595 121.008C64.3717 121.949 64.6599 122.72 65.2243 123.321C65.7887 123.922 66.5145 124.222 67.4019 124.222Z" fill="#004f7f" fill-rule="nonzero" opacity="1" stroke="none"/>
<path d="M75.8861 125.906L75.8861 112.143L78.023 112.143L78.023 125.906L75.8861 125.906Z" fill="#004f7f" fill-rule="nonzero" opacity="1" stroke="none"/>
<path d="M85.4929 115.964C86.4951 115.964 87.3854 116.175 88.1641 116.598C88.9429 117.02 89.548 117.608 89.9795 118.359C90.4112 119.111 90.627 119.981 90.627 120.971C90.627 121.949 90.4112 122.818 89.9795 123.579C89.548 124.34 88.9429 124.93 88.1641 125.349C87.3854 125.769 86.4951 125.978 85.4929 125.978C84.4788 125.978 83.5825 125.769 82.8038 125.349C82.0251 124.93 81.42 124.34 80.9883 123.579C80.5567 122.818 80.341 121.949 80.341 120.971C80.341 119.981 80.5567 119.111 80.9883 118.359C81.42 117.608 82.0251 117.02 82.8038 116.598C83.5825 116.175 84.4788 115.964 85.4929 115.964ZM85.4929 117.802C84.6057 117.802 83.8798 118.1 83.3153 118.694C82.7509 119.289 82.4687 120.054 82.4687 120.989C82.4687 121.943 82.7509 122.717 83.3153 123.312C83.8798 123.907 84.6057 124.204 85.4929 124.204C86.3803 124.204 87.1032 123.907 87.6615 123.312C88.2199 122.717 88.4991 121.943 88.4991 120.989C88.4991 120.048 88.2169 119.281 87.6525 118.69C87.0881 118.098 86.3682 117.802 85.4929 117.802Z" fill="#004f7f" fill-rule="nonzero" opacity="1" stroke="none"/>
<path d="M97.0828 115.964C98.085 115.964 98.9753 116.175 99.754 116.598C100.533 117.02 101.138 117.608 101.569 118.359C102.001 119.111 102.217 119.981 102.217 120.971C102.217 121.949 102.001 122.818 101.569 123.579C101.138 124.34 100.533 124.93 99.754 125.349C98.9753 125.769 98.085 125.978 97.0828 125.978C96.0687 125.978 95.1724 125.769 94.3937 125.349C93.615 124.93 93.0099 124.34 92.5782 123.579C92.1466 122.818 91.9309 121.949 91.9309 120.971C91.9309 119.981 92.1466 119.111 92.5782 118.359C93.0099 117.608 93.615 117.02 94.3937 116.598C95.1724 116.175 96.0687 115.964 97.0828 115.964ZM97.0828 117.802C96.1956 117.802 95.4696 118.1 94.9052 118.694C94.3408 119.289 94.0586 120.054 94.0586 120.989C94.0586 121.943 94.3408 122.717 94.9052 123.312C95.4696 123.907 96.1956 124.204 97.0828 124.204C97.9702 124.204 98.693 123.907 99.2514 123.312C99.8098 122.717 100.089 121.943 100.089 120.989C100.089 120.048 99.8068 119.281 99.2424 118.69C98.678 118.098 97.9581 117.802 97.0828 117.802Z" fill="#004f7f" fill-rule="nonzero" opacity="1" stroke="none"/>
<path d="M110.121 115.964C111.045 115.964 111.863 116.175 112.575 116.598C113.288 117.02 113.841 117.614 114.237 118.377C114.632 119.141 114.83 120.018 114.83 121.008C114.83 121.985 114.635 122.852 114.246 123.606C113.856 124.361 113.309 124.945 112.602 125.358C111.896 125.772 111.081 125.978 110.158 125.978C109.379 125.978 108.692 125.828 108.098 125.526C107.503 125.224 107.028 124.783 106.672 124.204L106.672 129.501L104.535 129.501L104.535 116.037L106.672 116.037L106.672 117.748C107.028 117.168 107.5 116.726 108.089 116.421C108.677 116.116 109.355 115.964 110.121 115.964ZM109.678 124.159C110.257 124.159 110.775 124.023 111.231 123.751C111.686 123.479 112.041 123.098 112.295 122.606C112.548 122.114 112.675 121.557 112.675 120.935C112.675 120.331 112.548 119.788 112.295 119.305C112.041 118.822 111.686 118.442 111.231 118.164C110.775 117.887 110.257 117.748 109.678 117.748C109.098 117.748 108.579 117.884 108.12 118.155C107.662 118.427 107.305 118.807 107.052 119.296C106.799 119.785 106.672 120.331 106.672 120.935C106.672 121.889 106.952 122.665 107.514 123.262C108.075 123.86 108.796 124.159 109.678 124.159Z" fill="#004f7f" fill-rule="nonzero" opacity="1" stroke="none"/>
<path d="M120 115.946C120.628 115.946 121.248 116.037 121.861 116.218C122.473 116.399 123.003 116.643 123.45 116.951L122.671 118.527C122.237 118.255 121.763 118.042 121.25 117.888C120.737 117.734 120.263 117.657 119.828 117.657C119.381 117.657 119.03 117.737 118.773 117.897C118.517 118.057 118.388 118.303 118.388 118.635C118.388 118.967 118.539 119.221 118.841 119.396C119.143 119.571 119.647 119.77 120.353 119.993C121.023 120.193 121.577 120.39 122.015 120.586C122.452 120.783 122.828 121.079 123.142 121.474C123.456 121.869 123.613 122.39 123.613 123.036C123.613 124.002 123.251 124.734 122.526 125.232C121.802 125.73 120.902 125.978 119.828 125.978C119.086 125.978 118.36 125.858 117.65 125.616C116.941 125.375 116.345 125.04 115.862 124.611L116.623 123.09C117.045 123.458 117.561 123.754 118.171 123.977C118.781 124.201 119.366 124.312 119.928 124.312C120.411 124.312 120.8 124.226 121.096 124.054C121.391 123.882 121.539 123.615 121.539 123.253C121.539 122.981 121.449 122.757 121.268 122.578C121.087 122.4 120.866 122.259 120.607 122.153C120.347 122.047 119.97 121.919 119.475 121.768C118.817 121.569 118.283 121.374 117.872 121.184C117.462 120.994 117.107 120.71 116.808 120.333C116.51 119.956 116.36 119.453 116.36 118.825C116.36 117.884 116.707 117.168 117.401 116.679C118.096 116.191 118.962 115.946 120 115.946Z" fill="#004f7f" fill-rule="nonzero" opacity="1" stroke="none"/>
</g>
</g>
</g>
</svg>
